# Blender v2.93.0 Beta OBJ File: 'zuo.blend'
# www.blender.org
mtllib button_grip.mtl
o button_grip
v 0.007419 -0.020297 0.028591
v 0.009180 -0.018946 0.026489
v 0.004790 -0.018975 0.026470
v 0.003031 -0.020311 0.028562
v 0.016234 -0.008024 0.028954
v 0.015016 -0.011104 0.040505
v 0.015297 -0.008615 0.041273
v 0.016409 -0.006084 0.030423
v 0.015163 -0.011394 0.025728
v 0.012868 -0.015404 0.025020
v 0.013247 -0.015198 0.025261
v 0.015344 -0.011798 0.025931
v 0.007163 -0.020859 0.030765
v 0.002769 -0.020875 0.030759
v 0.016187 -0.007878 0.028742
v 0.016345 -0.005967 0.030198
v 0.015902 -0.005537 0.029869
v 0.015896 -0.007401 0.028503
v 0.010390 -0.018482 0.026801
v 0.009569 -0.018852 0.026552
v 0.015476 -0.002877 0.032155
v 0.015944 -0.003272 0.032574
v 0.014826 -0.006607 0.042097
v 0.014764 -0.003982 0.040977
v 0.015251 -0.004411 0.040758
v 0.015313 -0.006353 0.041587
v 0.014081 -0.011383 0.041344
v 0.013340 -0.014100 0.039567
v 0.008943 -0.014116 0.039599
v 0.009675 -0.011395 0.041379
v 0.012398 -0.017254 0.036682
v 0.009824 -0.019984 0.033984
v 0.009244 -0.020179 0.034469
v 0.011841 -0.017505 0.037106
v 0.015378 -0.011931 0.026155
v 0.014292 -0.013756 0.038766
v 0.012530 -0.015491 0.024918
v 0.008147 -0.015518 0.024887
v 0.015650 -0.007281 0.028442
v 0.015638 -0.005446 0.029799
v 0.011233 -0.005414 0.029778
v 0.011265 -0.007244 0.028424
v 0.015214 -0.002799 0.032071
v 0.014879 -0.001989 0.033568
v 0.010455 -0.001962 0.033565
v 0.010805 -0.002799 0.032020
v 0.014503 -0.007273 0.042318
v 0.014366 -0.008816 0.042136
v 0.009951 -0.008824 0.042172
v 0.010083 -0.007281 0.042355
v 0.008436 -0.020544 0.030865
v 0.008519 -0.020515 0.030852
v 0.008583 -0.020481 0.030801
v 0.008612 -0.020452 0.030726
v 0.008732 -0.020057 0.029376
v 0.008717 -0.020037 0.029272
v 0.008660 -0.020033 0.029172
v 0.008575 -0.020048 0.029103
v 0.007778 -0.020251 0.028686
v 0.007532 -0.020804 0.030782
v 0.011532 -0.017565 0.037207
v 0.008937 -0.020223 0.034577
v 0.004560 -0.020236 0.034610
v 0.007145 -0.017583 0.037238
v 0.014796 -0.007248 0.042198
v 0.015300 -0.007142 0.041709
v 0.009950 -0.019910 0.033729
v 0.010571 -0.018432 0.027035
v 0.016014 -0.003402 0.032792
v 0.015419 -0.007055 0.041450
v 0.015430 -0.006221 0.041316
v 0.015846 -0.002614 0.033759
v 0.014660 -0.008788 0.042018
v 0.015173 -0.008675 0.041531
v 0.015178 -0.002079 0.033575
v 0.015740 -0.002467 0.033609
v 0.014564 -0.001487 0.035519
v 0.010136 -0.001455 0.035535
v 0.013641 -0.014046 0.039460
v 0.014167 -0.013826 0.039023
v 0.013385 -0.015148 0.025527
v 0.012525 -0.017172 0.036431
v 0.014933 -0.011270 0.025666
v 0.010566 -0.011232 0.025647
v 0.014378 -0.011343 0.041229
v 0.014892 -0.011179 0.040758
v 0.014869 -0.001593 0.035469
v 0.015446 -0.002041 0.035256
v 0.014468 -0.003869 0.041034
v 0.014534 -0.006672 0.042227
v 0.010110 -0.006692 0.042267
v 0.010042 -0.003835 0.041052
v 0.010524 -0.018453 0.026964
v 0.010458 -0.018472 0.026879
v 0.013299 -0.015191 0.025335
v 0.015372 -0.011842 0.025988
v 0.013350 -0.015173 0.025432
v 0.015384 -0.011890 0.026070
v 0.014220 -0.013812 0.038946
v 0.012447 -0.017237 0.036606
v 0.014265 -0.013786 0.038852
v 0.012494 -0.017207 0.036514
v 0.014947 -0.011162 0.040685
v 0.014993 -0.011134 0.040592
v 0.016007 -0.003354 0.032717
v 0.016406 -0.006041 0.030344
v 0.015982 -0.003306 0.032637
v 0.016383 -0.005998 0.030261
v 0.015375 -0.004637 0.040635
v 0.015411 -0.006259 0.041407
v 0.015354 -0.004562 0.040679
v 0.015368 -0.006307 0.041506
v 0.015309 -0.004480 0.040724
v 0.015274 -0.008637 0.041364
v 0.015399 -0.007084 0.041541
v 0.015229 -0.008659 0.041458
v 0.015356 -0.007116 0.041635
v 0.015601 -0.002259 0.035142
v 0.015569 -0.002185 0.035178
v 0.015831 -0.002559 0.033710
v 0.015512 -0.002105 0.035220
v 0.015792 -0.002505 0.033655
v 0.009918 -0.019940 0.033807
v 0.009872 -0.019967 0.033900
v 0.016236 -0.007975 0.028878
v 0.016219 -0.007921 0.028801
v 0.009442 -0.018897 0.026521
v 0.007660 -0.020278 0.028650
v 0.009300 -0.018932 0.026498
v 0.007528 -0.020295 0.028616
v 0.012646 -0.015470 0.024934
v 0.015020 -0.011306 0.025668
v 0.012769 -0.015439 0.024971
v 0.015104 -0.011351 0.025691
v 0.013442 -0.014096 0.039549
v 0.011634 -0.017562 0.037189
v 0.013553 -0.014077 0.039510
v 0.011747 -0.017540 0.037152
v 0.014184 -0.011380 0.041326
v 0.014292 -0.011366 0.041284
v 0.014668 -0.001503 0.035506
v 0.014570 -0.003891 0.041029
v 0.014780 -0.001542 0.035487
v 0.014678 -0.003933 0.041008
v 0.014635 -0.006646 0.042204
v 0.014605 -0.007265 0.042301
v 0.014743 -0.006622 0.042157
v 0.014712 -0.007256 0.042257
v 0.014468 -0.008812 0.042120
v 0.014576 -0.008802 0.042076
v 0.009035 -0.020222 0.034549
v 0.007279 -0.020851 0.030769
v 0.009148 -0.020206 0.034510
v 0.007414 -0.020831 0.030776
v 0.015745 -0.007308 0.028443
v 0.015835 -0.007352 0.028465
v 0.015311 -0.002808 0.032087
v 0.014982 -0.002003 0.033565
v 0.015407 -0.002836 0.032118
v 0.015092 -0.002036 0.033568
v 0.015737 -0.005462 0.029806
v 0.015833 -0.005496 0.029831
vt 0.191321 0.811533
vt 0.187912 0.828981
vt 0.201684 0.822948
vt 0.202742 0.805178
vt 0.213839 0.754956
vt 0.212272 0.746301
vt 0.170184 0.737557
vt 0.167697 0.746997
vt 0.218270 0.771842
vt 0.216484 0.772423
vt 0.212983 0.786545
vt 0.213662 0.788120
vt 0.181124 0.810410
vt 0.176842 0.827461
vt 0.214912 0.754867
vt 0.217111 0.753736
vt 0.215881 0.745067
vt 0.213343 0.746239
vt 0.202065 0.800272
vt 0.202517 0.803691
vt 0.211854 0.732202
vt 0.209329 0.733541
vt 0.170946 0.729206
vt 0.173492 0.729655
vt 0.179353 0.724346
vt 0.178946 0.721743
vt 0.162590 0.746397
vt 0.145865 0.746213
vt 0.145865 0.765795
vt 0.162352 0.759790
vt 0.167750 0.776885
vt 0.165016 0.777891
vt 0.169380 0.796101
vt 0.172237 0.794859
vt 0.215453 0.772419
vt 0.167765 0.759218
vt 0.220655 0.804962
vt 0.214219 0.789289
vt 0.218236 0.753479
vt 0.236641 0.752323
vt 0.233654 0.738967
vt 0.216975 0.744649
vt 0.212814 0.731628
vt 0.224368 0.720274
vt 0.217083 0.711939
vt 0.208703 0.726120
vt 0.168472 0.730563
vt 0.154762 0.721770
vt 0.149920 0.730244
vt 0.165498 0.736011
vt 0.182440 0.805201
vt 0.181543 0.808945
vt 0.191186 0.810021
vt 0.190187 0.806373
vt 0.189971 0.805970
vt 0.189596 0.805659
vt 0.189162 0.805513
vt 0.183269 0.804657
vt 0.182913 0.804691
vt 0.182610 0.804887
vt 0.163877 0.778517
vt 0.150958 0.790790
vt 0.160620 0.813133
vt 0.168384 0.796924
vt 0.169426 0.731056
vt 0.171674 0.731969
vt 0.201223 0.799443
vt 0.173447 0.794774
vt 0.208327 0.733764
vt 0.206162 0.729695
vt 0.174611 0.729718
vt 0.172675 0.732213
vt 0.166636 0.736345
vt 0.169144 0.737193
vt 0.208137 0.727106
vt 0.206929 0.729272
vt 0.206565 0.704800
vt 0.202116 0.721402
vt 0.166549 0.759080
vt 0.163645 0.759459
vt 0.212095 0.785856
vt 0.168937 0.776884
vt 0.219314 0.771901
vt 0.233377 0.780437
vt 0.166581 0.746773
vt 0.163842 0.746437
vt 0.202060 0.722594
vt 0.201922 0.725313
vt 0.178771 0.720476
vt 0.172463 0.707305
vt 0.156988 0.718684
vt 0.169982 0.728707
vt 0.201471 0.799683
vt 0.201774 0.799986
vt 0.216185 0.772426
vt 0.212719 0.786341
vt 0.215816 0.772423
vt 0.212398 0.786090
vt 0.168121 0.776886
vt 0.166936 0.759124
vt 0.168554 0.776885
vt 0.167376 0.759175
vt 0.166932 0.746845
vt 0.167339 0.746926
vt 0.212634 0.746279
vt 0.208663 0.733691
vt 0.213021 0.746257
vt 0.209025 0.733610
vt 0.179379 0.725455
vt 0.179373 0.725115
vt 0.174266 0.729702
vt 0.179361 0.724718
vt 0.173861 0.729682
vt 0.172351 0.732136
vt 0.169846 0.737436
vt 0.171991 0.732052
vt 0.169472 0.737306
vt 0.206403 0.729567
vt 0.201982 0.726052
vt 0.202010 0.726368
vt 0.206680 0.729417
vt 0.201950 0.725668
vt 0.173079 0.794796
vt 0.172640 0.794827
vt 0.214204 0.754927
vt 0.214590 0.754891
vt 0.191232 0.810531
vt 0.202591 0.804195
vt 0.191278 0.811084
vt 0.202668 0.804736
vt 0.218960 0.771877
vt 0.214045 0.788904
vt 0.218586 0.771855
vt 0.213843 0.788485
vt 0.164227 0.778321
vt 0.162759 0.759683
vt 0.164637 0.778093
vt 0.163227 0.759564
vt 0.162991 0.746406
vt 0.163439 0.746423
vt 0.178824 0.720881
vt 0.202101 0.721785
vt 0.178890 0.721339
vt 0.202079 0.722219
vt 0.168776 0.730715
vt 0.170290 0.728871
vt 0.169120 0.730893
vt 0.170642 0.729051
vt 0.165862 0.736113
vt 0.166273 0.736236
vt 0.181259 0.809955
vt 0.168689 0.796667
vt 0.181408 0.809418
vt 0.169051 0.796365
vt 0.217851 0.753564
vt 0.217451 0.753660
vt 0.208521 0.726445
vt 0.212489 0.731821
vt 0.208313 0.726803
vt 0.212144 0.732026
vt 0.216602 0.744791
vt 0.216214 0.744945
vn 0.0060 -0.9050 -0.4253
vn 0.0054 -0.9341 -0.3570
vn 0.0075 -0.7512 -0.6600
vn 0.0079 -0.5648 -0.8252
vn 0.9758 -0.2126 0.0507
vn 0.9934 -0.0853 0.0764
vn 0.9947 -0.0650 0.0794
vn 0.9799 -0.1917 0.0557
vn 0.7693 0.0595 -0.6361
vn 0.6941 -0.0476 -0.7183
vn 0.5797 -0.3362 -0.7422
vn 0.5564 -0.6097 -0.5645
vn 0.0044 -0.9997 -0.0259
vn 0.0042 -0.9975 -0.0699
vn 0.8257 0.2494 -0.5060
vn 0.8171 0.2823 -0.5027
vn 0.7881 0.4196 -0.4503
vn 0.7918 0.4001 -0.4615
vn 0.4989 -0.7634 -0.4103
vn 0.4460 -0.8401 -0.3088
vn 0.7220 0.5870 -0.3662
vn 0.7236 0.5845 -0.3671
vn 0.6676 0.1678 0.7253
vn 0.6376 0.2489 0.7291
vn 0.6605 0.4972 0.5626
vn 0.6707 0.5464 0.5016
vn 0.0083 -0.4125 0.9109
vn 0.0083 -0.4391 0.8984
vn 0.0081 -0.5589 0.8292
vn 0.0081 -0.5556 0.8314
vn 0.5974 -0.7046 0.3830
vn 0.5808 -0.7332 0.3538
vn 0.4269 -0.8902 0.1591
vn 0.4261 -0.8907 0.1583
vn 0.9176 -0.3974 0.0117
vn 0.9368 -0.3491 0.0216
vn 0.0075 -0.2443 -0.9697
vn 0.0067 0.0006 -1.0000
vn 0.0083 0.5831 -0.8123
vn 0.0083 0.5821 -0.8130
vn 0.0084 0.6250 -0.7806
vn 0.0089 0.6225 -0.7826
vn 0.0073 0.7675 -0.6410
vn 0.0071 0.7897 -0.6135
vn 0.0059 0.9362 -0.3513
vn 0.0059 0.9262 -0.3770
vn 0.0083 0.0214 0.9997
vn 0.0084 0.0096 0.9999
vn 0.0084 -0.2130 0.9770
vn 0.0084 -0.2022 0.9793
vn 0.3192 -0.9434 -0.0902
vn 0.3122 -0.9424 -0.1198
vn 0.3650 -0.9005 -0.2364
vn 0.3670 -0.8979 -0.2430
vn 0.3828 -0.8923 -0.2391
vn 0.4181 -0.8843 -0.2077
vn 0.3608 -0.9079 -0.2134
vn 0.3775 -0.9057 -0.1927
vn 0.4343 -0.8900 -0.1389
vn 0.3647 -0.9256 -0.1011
vn 0.0081 -0.6148 0.7887
vn 0.0078 -0.6604 0.7509
vn 0.0055 -0.9348 0.3552
vn 0.0066 -0.8402 0.5423
vn 0.7016 -0.0419 0.7114
vn 0.7002 -0.0110 0.7138
vn 0.5773 -0.8054 -0.1343
vn 0.7154 -0.6938 -0.0829
vn 0.7117 -0.6974 -0.0844
vn 0.9957 0.0253 0.0886
vn 0.9936 0.0689 0.0897
vn 0.9936 0.0683 0.0896
vn 0.9958 0.0249 0.0886
vn 0.6996 -0.2160 0.6811
vn 0.6999 -0.2086 0.6831
vn 0.6138 0.7657 -0.1921
vn 0.6308 0.7399 -0.2337
vn 0.0077 0.9951 0.0984
vn 0.0076 0.9982 0.0599
vn 0.6489 -0.5773 0.4956
vn 0.6461 -0.5871 0.4877
vn 0.8281 -0.5596 -0.0319
vn 0.8308 -0.5557 -0.0305
vn 0.0076 0.4266 -0.9044
vn 0.0070 0.3423 -0.9396
vn 0.6848 -0.4058 0.6053
vn 0.6838 -0.4136 0.6011
vn 0.6540 0.7415 0.1499
vn 0.6341 0.7705 0.0649
vn 0.0081 0.7043 0.7099
vn 0.0081 0.7062 0.7079
vn 0.0075 0.2708 0.9626
vn 0.0072 0.2744 0.9616
vn 0.5869 -0.7792 -0.2200
vn 0.6193 -0.7665 -0.1701
vn 0.5297 -0.7925 -0.3022
vn 0.5030 -0.7975 -0.3333
vn 0.8635 -0.1257 -0.4885
vn 0.8936 -0.1915 -0.4060
vn 0.7165 -0.5554 -0.4220
vn 0.6694 -0.5809 -0.4632
vn 0.9303 -0.2948 -0.2185
vn 0.7685 -0.5829 -0.2641
vn 0.9309 -0.3452 -0.1196
vn 0.7988 -0.5761 -0.1733
vn 0.6646 -0.6907 0.2850
vn 0.7025 -0.6752 0.2247
vn 0.7852 -0.5265 0.3260
vn 0.7354 -0.5473 0.3996
vn 0.7680 -0.6308 0.1108
vn 0.8645 -0.4657 0.1892
vn 0.7927 -0.6076 0.0498
vn 0.8908 -0.4382 0.1199
vn 0.8331 -0.3563 0.4231
vn 0.7813 -0.3737 0.5000
vn 0.9179 -0.2978 0.2622
vn 0.9486 -0.2646 0.1734
vn 0.9987 0.0492 -0.0099
vn 0.9903 0.1023 -0.0940
vn 0.9637 0.2585 -0.0673
vn 0.9839 0.1785 0.0059
vn 0.9347 0.2409 -0.2613
vn 0.8848 0.4092 -0.2229
vn 0.8883 0.2969 -0.3503
vn 0.8350 0.4646 -0.2948
vn 0.9594 0.1921 0.2064
vn 0.9120 0.2812 0.2985
vn 0.9279 0.1221 0.3523
vn 0.9662 0.1029 0.2364
vn 0.8091 0.4012 0.4295
vn 0.8196 0.1733 0.5461
vn 0.7677 0.4753 0.4299
vn 0.7716 0.1440 0.6196
vn 0.9778 -0.0276 0.2079
vn 0.9468 -0.0344 0.3201
vn 0.9415 -0.1530 0.3003
vn 0.9708 -0.1340 0.1991
vn 0.8586 -0.0258 0.5120
vn 0.8568 -0.1854 0.4811
vn 0.8040 -0.0476 0.5927
vn 0.8015 -0.1992 0.5639
vn 0.9553 0.2926 0.0418
vn 0.9160 0.4004 -0.0238
vn 0.8937 0.4365 0.1042
vn 0.9419 0.3183 0.1074
vn 0.7989 0.5871 -0.1309
vn 0.7817 0.6160 0.0974
vn 0.7398 0.6443 -0.1939
vn 0.7466 0.6468 0.1555
vn 0.5952 -0.8036 -0.0010
vn 0.6268 -0.7771 -0.0571
vn 0.5139 -0.8544 0.0771
vn 0.5132 -0.8473 0.1371
vn 0.9902 -0.0556 -0.1284
vn 0.9922 -0.1163 -0.0448
vn 0.9494 0.0804 -0.3036
vn 0.9074 0.1507 -0.3923
vn 0.9880 0.1157 0.1019
vn 0.9881 0.1159 0.1015
vn 0.3050 -0.9165 -0.2590
vn 0.2461 -0.9261 -0.2860
vn 0.3390 -0.7882 -0.5136
vn 0.4219 -0.7570 -0.4989
vn 0.1458 -0.9315 -0.3332
vn 0.2146 -0.7536 -0.6213
vn 0.0992 -0.9355 -0.3390
vn 0.1445 -0.8099 -0.5685
vn 0.1519 0.3395 -0.9283
vn 0.2707 0.2879 -0.9186
vn 0.2310 -0.2806 -0.9316
vn 0.1555 -0.3804 -0.9116
vn 0.4898 0.1803 -0.8530
vn 0.3979 -0.3719 -0.8387
vn 0.5903 0.1071 -0.8001
vn 0.4841 -0.2783 -0.8296
vn 0.1582 -0.7134 0.6827
vn 0.2473 -0.7181 0.6506
vn 0.2629 -0.6069 0.7501
vn 0.1556 -0.5932 0.7899
vn 0.4106 -0.7373 0.5365
vn 0.4527 -0.6125 0.6480
vn 0.4968 -0.7131 0.4946
vn 0.5383 -0.5968 0.5951
vn 0.2718 -0.4503 0.8505
vn 0.1621 -0.4538 0.8762
vn 0.4728 -0.4447 0.7607
vn 0.5667 -0.4238 0.7065
vn 0.1776 0.7128 0.6784
vn 0.2618 0.6776 0.6873
vn 0.2543 0.9629 0.0900
vn 0.1777 0.9758 0.1275
vn 0.4453 0.6285 0.6377
vn 0.4239 0.9007 0.0957
vn 0.5396 0.5762 0.6138
vn 0.5100 0.8572 0.0716
vn 0.1706 -0.0066 0.9853
vn 0.2764 -0.0013 0.9610
vn 0.2444 0.2658 0.9325
vn 0.1514 0.2444 0.9578
vn 0.4794 -0.0137 0.8775
vn 0.4417 0.2425 0.8637
vn 0.5751 -0.0114 0.8180
vn 0.5257 0.2531 0.8121
vn 0.2763 -0.2244 0.9345
vn 0.1682 -0.2257 0.9596
vn 0.4818 -0.2270 0.8464
vn 0.5773 -0.2181 0.7868
vn 0.0663 -0.9946 -0.0798
vn 0.1058 -0.9927 -0.0571
vn 0.1674 -0.9178 0.3599
vn 0.0995 -0.9331 0.3456
vn 0.2004 -0.9768 -0.0754
vn 0.2887 -0.9164 0.2772
vn 0.2561 -0.9639 -0.0732
vn 0.3682 -0.8966 0.2461
vn 0.1780 0.5637 -0.8066
vn 0.3100 0.5339 -0.7867
vn 0.5559 0.4490 -0.6996
vn 0.6682 0.3850 -0.6366
vn 0.1260 0.9377 -0.3237
vn 0.2150 0.9215 -0.3235
vn 0.2587 0.7769 -0.5740
vn 0.1493 0.7900 -0.5946
vn 0.3973 0.8758 -0.2743
vn 0.4726 0.7298 -0.4940
vn 0.4954 0.8304 -0.2550
vn 0.5822 0.6794 -0.4466
vn 0.2918 0.6122 -0.7349
vn 0.1652 0.6261 -0.7621
vn 0.5329 0.5531 -0.6404
vn 0.6459 0.5000 -0.5769
usemtl _oculus_rifts_controller_leftoculusriftscontleft
s 1
f 1/1/1 4/2/2 3/3/3 2/4/4
f 5/5/5 8/6/6 7/7/7 6/8/8
f 9/9/9 12/10/10 11/11/11 10/12/12
f 13/13/13 14/14/14 4/2/2 1/1/1
f 15/15/15 18/16/16 17/17/17 16/18/18
f 19/19/19 20/20/20 10/12/12 11/11/11
f 21/21/21 22/22/22 16/18/18 17/17/17
f 23/23/23 26/24/24 25/25/25 24/26/26
f 27/27/27 30/28/28 29/29/29 28/30/30
f 31/31/31 34/32/32 33/33/33 32/34/34
f 35/35/35 5/5/5 6/8/8 36/36/36
f 2/4/4 3/3/3 38/37/37 37/38/38
f 39/39/39 42/40/40 41/41/41 40/42/42
f 43/43/43 46/44/44 45/45/45 44/46/46
f 47/47/47 50/48/48 49/49/49 48/50/50
f 51/51/51 60/52/52 59/53/53 58/54/54 57/55/55 56/56/56 55/57/57 54/58/58 53/59/59 52/60/60
f 61/61/61 64/62/62 63/63/63 62/64/64
f 65/65/65 66/66/66 26/24/24 23/23/23
f 40/42/42 41/41/41 46/44/44 43/43/43
f 55/57/67 68/67/68 67/68/69 54/58/67
f 60/52/52 51/51/51 32/34/34 33/33/33
f 69/69/70 72/70/71 71/71/72 70/72/73
f 73/73/74 74/74/75 66/66/66 65/65/65
f 62/64/64 63/63/63 14/14/14 13/13/13
f 75/75/76 76/76/77 22/22/22 21/21/21
f 44/46/46 45/45/45 78/77/78 77/78/79
f 34/32/32 31/31/31 80/79/80 79/80/81
f 18/16/16 15/15/15 12/10/10 9/9/9
f 81/81/82 35/35/35 36/36/36 82/82/83
f 68/67/68 81/81/82 82/82/83 67/68/69
f 48/50/50 49/49/49 30/28/28 27/27/27
f 83/83/84 84/84/85 42/40/40 39/39/39
f 79/80/81 80/79/80 86/85/86 85/86/87
f 87/87/88 24/26/26 25/25/25 88/88/89
f 89/89/90 92/90/91 91/91/92 90/92/93
f 8/6/6 69/69/70 70/72/73 7/7/7
f 87/87/88 88/88/89 76/76/77 75/75/76
f 90/92/93 91/91/92 50/48/48 47/47/47
f 28/30/30 29/29/29 64/62/62 61/61/61
f 37/38/38 38/37/37 84/84/85 83/83/84
f 85/86/87 86/85/86 74/74/75 73/73/74
f 20/20/20 19/19/19 58/54/54 59/53/53
f 55/57/57 56/56/56 93/93/94 68/67/95
f 56/56/56 57/55/55 94/94/96 93/93/94
f 57/55/55 58/54/54 19/19/97 94/94/96
f 12/10/98 96/95/99 95/96/100 11/11/101
f 96/95/99 98/97/102 97/98/103 95/96/100
f 98/97/102 35/35/104 81/81/105 97/98/103
f 31/31/106 100/99/107 99/100/108 80/79/109
f 100/99/107 102/101/110 101/102/111 99/100/108
f 102/101/110 82/82/112 36/36/113 101/102/111
f 80/79/109 99/100/108 103/103/114 86/85/115
f 99/100/108 101/102/111 104/104/116 103/103/114
f 101/102/111 36/36/113 6/8/117 104/104/116
f 8/6/118 106/105/119 105/106/120 69/69/121
f 106/105/119 108/107/122 107/108/123 105/106/120
f 108/107/122 16/18/124 22/22/125 107/108/123
f 109/109/126 111/110/127 110/111/128 71/71/129
f 111/110/127 113/112/130 112/113/131 110/111/128
f 113/112/130 25/25/132 26/24/133 112/113/131
f 70/72/134 115/114/135 114/115/136 7/7/137
f 115/114/135 117/116/138 116/117/139 114/115/136
f 117/116/138 66/66/140 74/74/141 116/117/139
f 72/70/142 120/118/143 119/119/144 118/120/145
f 120/118/143 122/121/146 121/122/147 119/119/144
f 122/121/146 76/76/148 88/88/149 121/122/147
f 69/69/121 105/106/120 120/118/143 72/70/142
f 105/106/120 107/108/123 122/121/146 120/118/143
f 107/108/123 22/22/125 76/76/148 122/121/146
f 82/82/112 102/101/110 123/123/150 67/68/151
f 102/101/110 100/99/107 124/124/152 123/123/150
f 100/99/107 31/31/106 32/34/153 124/124/152
f 35/35/104 98/97/102 125/125/154 5/5/155
f 98/97/102 96/95/99 126/126/156 125/125/154
f 96/95/99 12/10/98 15/15/157 126/126/156
f 67/68/151 123/123/150 53/59/59 54/58/58
f 123/123/150 124/124/152 52/60/60 53/59/59
f 124/124/152 32/34/153 51/51/51 52/60/60
f 68/67/95 93/93/94 97/98/103 81/81/105
f 93/93/94 94/94/96 95/96/100 97/98/103
f 94/94/96 19/19/97 11/11/101 95/96/100
f 7/7/137 114/115/136 104/104/116 6/8/117
f 114/115/136 116/117/139 103/103/114 104/104/116
f 116/117/139 74/74/141 86/85/115 103/103/114
f 71/71/129 110/111/128 115/114/135 70/72/134
f 110/111/128 112/113/131 117/116/138 115/114/135
f 112/113/131 26/24/133 66/66/140 117/116/138
f 118/120/145 119/119/144 111/110/127 109/109/126
f 119/119/144 121/122/147 113/112/130 111/110/127
f 121/122/147 88/88/149 25/25/132 113/112/130
f 5/5/155 125/125/154 106/105/119 8/6/118
f 125/125/154 126/126/156 108/107/122 106/105/119
f 126/126/156 15/15/157 16/18/124 108/107/122
f 72/70/71 118/120/158 109/109/159 71/71/72
f 59/53/160 128/127/161 127/128/162 20/20/163
f 128/127/161 130/129/164 129/130/165 127/128/162
f 130/129/164 1/1/166 2/4/167 129/130/165
f 83/83/168 132/131/169 131/132/170 37/38/171
f 132/131/169 134/133/172 133/134/173 131/132/170
f 134/133/172 9/9/174 10/12/175 133/134/173
f 61/61/176 136/135/177 135/136/178 28/30/179
f 136/135/177 138/137/180 137/138/181 135/136/178
f 138/137/180 34/32/182 79/80/183 137/138/181
f 28/30/179 135/136/178 139/139/184 27/27/185
f 135/136/178 137/138/181 140/140/186 139/139/184
f 137/138/181 79/80/183 85/86/187 140/140/186
f 89/89/188 142/141/189 141/142/190 77/78/191
f 142/141/189 144/143/192 143/144/193 141/142/190
f 144/143/192 24/26/194 87/87/195 143/144/193
f 47/47/196 146/145/197 145/146/198 90/92/199
f 146/145/197 148/147/200 147/148/201 145/146/198
f 148/147/200 65/65/202 23/23/203 147/148/201
f 27/27/185 139/139/184 149/149/204 48/50/205
f 139/139/184 140/140/186 150/150/206 149/149/204
f 140/140/186 85/86/187 73/73/207 150/150/206
f 37/38/171 131/132/170 129/130/165 2/4/167
f 131/132/170 133/134/173 127/128/162 129/130/165
f 133/134/173 10/12/175 20/20/163 127/128/162
f 13/13/208 152/151/209 151/152/210 62/64/211
f 152/151/209 154/153/212 153/154/213 151/152/210
f 154/153/212 60/52/214 33/33/215 153/154/213
f 1/1/166 130/129/164 152/151/209 13/13/208
f 130/129/164 128/127/161 154/153/212 152/151/209
f 128/127/161 59/53/160 60/52/214 154/153/212
f 39/39/216 155/155/217 132/131/169 83/83/168
f 155/155/217 156/156/218 134/133/172 132/131/169
f 156/156/218 18/16/219 9/9/174 134/133/172
f 62/64/211 151/152/210 136/135/177 61/61/176
f 151/152/210 153/154/213 138/137/180 136/135/177
f 153/154/213 33/33/215 34/32/182 138/137/180
f 44/46/220 158/157/221 157/158/222 43/43/223
f 158/157/221 160/159/224 159/160/225 157/158/222
f 160/159/224 75/75/226 21/21/227 159/160/225
f 77/78/191 141/142/190 158/157/221 44/46/220
f 141/142/190 143/144/193 160/159/224 158/157/221
f 143/144/193 87/87/195 75/75/226 160/159/224
f 48/50/205 149/149/204 146/145/197 47/47/196
f 149/149/204 150/150/206 148/147/200 146/145/197
f 150/150/206 73/73/207 65/65/202 148/147/200
f 90/92/199 145/146/198 142/141/189 89/89/188
f 145/146/198 147/148/201 144/143/192 142/141/189
f 147/148/201 23/23/203 24/26/194 144/143/192
f 43/43/223 157/158/222 161/161/228 40/42/229
f 157/158/222 159/160/225 162/162/230 161/161/228
f 159/160/225 21/21/227 17/17/231 162/162/230
f 18/16/219 156/156/218 162/162/230 17/17/231
f 156/156/218 155/155/217 161/161/228 162/162/230
f 155/155/217 39/39/216 40/42/229 161/161/228
f 77/78/79 78/77/78 92/90/91 89/89/90
