# Blender v2.93.0 Beta OBJ File: 'you.blend'
# www.blender.org
mtllib button_grip.mtl
o button_grip
v -0.007419 -0.020297 0.028591
v -0.009180 -0.018946 0.026489
v -0.004790 -0.018975 0.026470
v -0.003031 -0.020311 0.028562
v -0.016234 -0.008024 0.028954
v -0.015016 -0.011104 0.040505
v -0.015297 -0.008615 0.041273
v -0.016409 -0.006084 0.030423
v -0.015163 -0.011394 0.025728
v -0.012868 -0.015404 0.025020
v -0.013247 -0.015198 0.025261
v -0.015344 -0.011798 0.025931
v -0.007163 -0.020859 0.030765
v -0.002769 -0.020875 0.030759
v -0.016187 -0.007878 0.028742
v -0.016345 -0.005967 0.030198
v -0.015902 -0.005537 0.029869
v -0.015896 -0.007401 0.028503
v -0.010390 -0.018482 0.026801
v -0.009569 -0.018852 0.026552
v -0.015476 -0.002877 0.032155
v -0.015944 -0.003272 0.032574
v -0.014826 -0.006607 0.042097
v -0.014764 -0.003982 0.040977
v -0.015251 -0.004411 0.040758
v -0.015313 -0.006353 0.041587
v -0.014081 -0.011383 0.041344
v -0.013340 -0.014100 0.039567
v -0.008943 -0.014116 0.039599
v -0.009675 -0.011395 0.041379
v -0.012398 -0.017254 0.036682
v -0.009824 -0.019984 0.033984
v -0.009244 -0.020179 0.034469
v -0.011841 -0.017505 0.037106
v -0.015378 -0.011931 0.026155
v -0.014292 -0.013756 0.038766
v -0.012530 -0.015491 0.024918
v -0.008147 -0.015518 0.024887
v -0.015650 -0.007281 0.028442
v -0.015638 -0.005446 0.029799
v -0.011233 -0.005414 0.029778
v -0.011265 -0.007244 0.028424
v -0.015214 -0.002799 0.032071
v -0.014879 -0.001989 0.033568
v -0.010455 -0.001962 0.033565
v -0.010805 -0.002799 0.032020
v -0.014503 -0.007273 0.042318
v -0.014366 -0.008816 0.042136
v -0.009951 -0.008824 0.042172
v -0.010083 -0.007281 0.042355
v -0.008436 -0.020544 0.030865
v -0.008519 -0.020515 0.030852
v -0.008583 -0.020481 0.030801
v -0.008612 -0.020452 0.030726
v -0.008732 -0.020057 0.029376
v -0.008717 -0.020037 0.029272
v -0.008660 -0.020033 0.029172
v -0.008575 -0.020048 0.029103
v -0.007778 -0.020251 0.028686
v -0.007532 -0.020804 0.030782
v -0.011532 -0.017565 0.037207
v -0.008937 -0.020223 0.034577
v -0.004560 -0.020236 0.034610
v -0.007145 -0.017583 0.037238
v -0.014796 -0.007248 0.042198
v -0.015300 -0.007142 0.041709
v -0.009950 -0.019910 0.033729
v -0.010571 -0.018432 0.027035
v -0.016014 -0.003402 0.032792
v -0.015419 -0.007055 0.041450
v -0.015430 -0.006221 0.041316
v -0.015846 -0.002614 0.033759
v -0.014660 -0.008788 0.042018
v -0.015173 -0.008675 0.041531
v -0.015178 -0.002079 0.033575
v -0.015740 -0.002467 0.033609
v -0.014564 -0.001487 0.035519
v -0.010136 -0.001455 0.035535
v -0.013641 -0.014046 0.039460
v -0.014167 -0.013826 0.039023
v -0.013385 -0.015148 0.025527
v -0.012525 -0.017172 0.036431
v -0.014933 -0.011270 0.025666
v -0.010566 -0.011232 0.025647
v -0.014378 -0.011343 0.041229
v -0.014892 -0.011179 0.040758
v -0.014869 -0.001593 0.035469
v -0.015446 -0.002041 0.035256
v -0.014468 -0.003869 0.041034
v -0.014534 -0.006672 0.042227
v -0.010110 -0.006692 0.042267
v -0.010042 -0.003835 0.041052
v -0.010524 -0.018453 0.026964
v -0.010458 -0.018472 0.026879
v -0.013299 -0.015191 0.025335
v -0.015372 -0.011842 0.025988
v -0.013350 -0.015173 0.025432
v -0.015384 -0.011890 0.026070
v -0.014220 -0.013812 0.038946
v -0.012447 -0.017237 0.036606
v -0.014265 -0.013786 0.038852
v -0.012494 -0.017207 0.036514
v -0.014947 -0.011162 0.040685
v -0.014993 -0.011134 0.040592
v -0.016007 -0.003354 0.032717
v -0.016406 -0.006041 0.030344
v -0.015982 -0.003306 0.032637
v -0.016383 -0.005998 0.030261
v -0.015375 -0.004637 0.040635
v -0.015411 -0.006259 0.041407
v -0.015354 -0.004562 0.040679
v -0.015368 -0.006307 0.041506
v -0.015309 -0.004480 0.040724
v -0.015274 -0.008637 0.041364
v -0.015399 -0.007084 0.041541
v -0.015229 -0.008659 0.041458
v -0.015356 -0.007116 0.041635
v -0.015601 -0.002259 0.035142
v -0.015569 -0.002185 0.035178
v -0.015831 -0.002559 0.033710
v -0.015512 -0.002105 0.035220
v -0.015792 -0.002505 0.033655
v -0.009918 -0.019940 0.033807
v -0.009872 -0.019967 0.033900
v -0.016236 -0.007975 0.028878
v -0.016219 -0.007921 0.028801
v -0.009442 -0.018897 0.026521
v -0.007660 -0.020278 0.028650
v -0.009300 -0.018932 0.026498
v -0.007528 -0.020295 0.028616
v -0.012646 -0.015470 0.024934
v -0.015020 -0.011306 0.025668
v -0.012769 -0.015439 0.024971
v -0.015104 -0.011351 0.025691
v -0.013442 -0.014096 0.039549
v -0.011634 -0.017562 0.037189
v -0.013553 -0.014077 0.039510
v -0.011747 -0.017540 0.037152
v -0.014184 -0.011380 0.041326
v -0.014292 -0.011366 0.041284
v -0.014668 -0.001503 0.035506
v -0.014570 -0.003891 0.041029
v -0.014780 -0.001542 0.035487
v -0.014678 -0.003933 0.041008
v -0.014635 -0.006646 0.042204
v -0.014605 -0.007265 0.042301
v -0.014743 -0.006622 0.042157
v -0.014712 -0.007256 0.042257
v -0.014468 -0.008812 0.042120
v -0.014576 -0.008802 0.042076
v -0.009035 -0.020222 0.034549
v -0.007279 -0.020851 0.030769
v -0.009148 -0.020206 0.034510
v -0.007414 -0.020831 0.030776
v -0.015745 -0.007308 0.028443
v -0.015835 -0.007352 0.028465
v -0.015311 -0.002808 0.032087
v -0.014982 -0.002003 0.033565
v -0.015407 -0.002836 0.032118
v -0.015092 -0.002036 0.033568
v -0.015737 -0.005462 0.029806
v -0.015833 -0.005496 0.029831
vt 0.191321 0.811533
vt 0.202742 0.805178
vt 0.201684 0.822948
vt 0.187912 0.828981
vt 0.213839 0.754956
vt 0.167697 0.746997
vt 0.170184 0.737557
vt 0.212272 0.746301
vt 0.218270 0.771842
vt 0.213662 0.788120
vt 0.212983 0.786545
vt 0.216484 0.772423
vt 0.181124 0.810410
vt 0.176842 0.827461
vt 0.214912 0.754867
vt 0.213343 0.746239
vt 0.215881 0.745067
vt 0.217111 0.753736
vt 0.202065 0.800272
vt 0.202517 0.803691
vt 0.211854 0.732202
vt 0.209329 0.733541
vt 0.170946 0.729206
vt 0.178946 0.721743
vt 0.179353 0.724346
vt 0.173492 0.729655
vt 0.162590 0.746397
vt 0.162352 0.759790
vt 0.145865 0.765795
vt 0.145865 0.746213
vt 0.167750 0.776885
vt 0.172237 0.794859
vt 0.169380 0.796101
vt 0.165016 0.777891
vt 0.215453 0.772419
vt 0.167765 0.759218
vt 0.214219 0.789289
vt 0.220655 0.804962
vt 0.218236 0.753479
vt 0.216975 0.744649
vt 0.233654 0.738967
vt 0.236641 0.752323
vt 0.212814 0.731628
vt 0.208703 0.726120
vt 0.217083 0.711939
vt 0.224368 0.720274
vt 0.168472 0.730563
vt 0.165498 0.736011
vt 0.149920 0.730244
vt 0.154762 0.721770
vt 0.182440 0.805201
vt 0.182610 0.804887
vt 0.182913 0.804691
vt 0.183269 0.804657
vt 0.189162 0.805513
vt 0.189596 0.805659
vt 0.189971 0.805970
vt 0.190187 0.806373
vt 0.191186 0.810021
vt 0.181543 0.808945
vt 0.163877 0.778517
vt 0.168384 0.796924
vt 0.160620 0.813133
vt 0.150958 0.790790
vt 0.169426 0.731056
vt 0.171674 0.731969
vt 0.173447 0.794774
vt 0.201223 0.799443
vt 0.208327 0.733764
vt 0.172675 0.732213
vt 0.174611 0.729718
vt 0.206162 0.729695
vt 0.166636 0.736345
vt 0.169144 0.737193
vt 0.208137 0.727106
vt 0.206929 0.729272
vt 0.202116 0.721402
vt 0.206565 0.704800
vt 0.163645 0.759459
vt 0.166549 0.759080
vt 0.212095 0.785856
vt 0.168937 0.776884
vt 0.219314 0.771901
vt 0.233377 0.780437
vt 0.163842 0.746437
vt 0.166581 0.746773
vt 0.202060 0.722594
vt 0.201922 0.725313
vt 0.178771 0.720476
vt 0.169982 0.728707
vt 0.156988 0.718684
vt 0.172463 0.707305
vt 0.201471 0.799683
vt 0.201774 0.799986
vt 0.212719 0.786341
vt 0.216185 0.772426
vt 0.212398 0.786090
vt 0.215816 0.772423
vt 0.166936 0.759124
vt 0.168121 0.776886
vt 0.167376 0.759175
vt 0.168554 0.776885
vt 0.166932 0.746845
vt 0.167339 0.746926
vt 0.208663 0.733691
vt 0.212634 0.746279
vt 0.209025 0.733610
vt 0.213021 0.746257
vt 0.179379 0.725455
vt 0.174266 0.729702
vt 0.179373 0.725115
vt 0.173861 0.729682
vt 0.179361 0.724718
vt 0.169846 0.737436
vt 0.172351 0.732136
vt 0.169472 0.737306
vt 0.171991 0.732052
vt 0.202010 0.726368
vt 0.201982 0.726052
vt 0.206403 0.729567
vt 0.201950 0.725668
vt 0.206680 0.729417
vt 0.173079 0.794796
vt 0.172640 0.794827
vt 0.214204 0.754927
vt 0.214590 0.754891
vt 0.202591 0.804195
vt 0.191232 0.810531
vt 0.202668 0.804736
vt 0.191278 0.811084
vt 0.214045 0.788904
vt 0.218960 0.771877
vt 0.213843 0.788485
vt 0.218586 0.771855
vt 0.162759 0.759683
vt 0.164227 0.778321
vt 0.163227 0.759564
vt 0.164637 0.778093
vt 0.162991 0.746406
vt 0.163439 0.746423
vt 0.202101 0.721785
vt 0.178824 0.720881
vt 0.202079 0.722219
vt 0.178890 0.721339
vt 0.170290 0.728871
vt 0.168776 0.730715
vt 0.170642 0.729051
vt 0.169120 0.730893
vt 0.165862 0.736113
vt 0.166273 0.736236
vt 0.168689 0.796667
vt 0.181259 0.809955
vt 0.169051 0.796365
vt 0.181408 0.809418
vt 0.217851 0.753564
vt 0.217451 0.753660
vt 0.212489 0.731821
vt 0.208521 0.726445
vt 0.212144 0.732026
vt 0.208313 0.726803
vt 0.216602 0.744791
vt 0.216214 0.744945
vn -0.0060 -0.9050 -0.4253
vn -0.0079 -0.5648 -0.8252
vn -0.0075 -0.7512 -0.6600
vn -0.0054 -0.9341 -0.3570
vn -0.9758 -0.2126 0.0507
vn -0.9799 -0.1917 0.0557
vn -0.9947 -0.0650 0.0794
vn -0.9934 -0.0853 0.0764
vn -0.7693 0.0595 -0.6361
vn -0.5565 -0.6096 -0.5645
vn -0.5796 -0.3365 -0.7422
vn -0.6941 -0.0476 -0.7183
vn -0.0044 -0.9996 -0.0262
vn -0.0042 -0.9975 -0.0699
vn -0.8257 0.2494 -0.5059
vn -0.7918 0.4002 -0.4614
vn -0.7881 0.4195 -0.4504
vn -0.8171 0.2823 -0.5027
vn -0.4990 -0.7633 -0.4103
vn -0.4459 -0.8402 -0.3087
vn -0.7220 0.5870 -0.3662
vn -0.7236 0.5846 -0.3671
vn -0.6676 0.1675 0.7254
vn -0.6707 0.5464 0.5016
vn -0.6605 0.4972 0.5626
vn -0.6376 0.2489 0.7291
vn -0.0083 -0.4125 0.9109
vn -0.0081 -0.5556 0.8314
vn -0.0081 -0.5589 0.8292
vn -0.0083 -0.4391 0.8984
vn -0.5974 -0.7046 0.3830
vn -0.4261 -0.8907 0.1583
vn -0.4269 -0.8902 0.1591
vn -0.5808 -0.7332 0.3538
vn -0.9176 -0.3974 0.0117
vn -0.9368 -0.3491 0.0216
vn -0.0067 0.0006 -1.0000
vn -0.0075 -0.2443 -0.9697
vn -0.0083 0.5831 -0.8123
vn -0.0089 0.6225 -0.7825
vn -0.0084 0.6250 -0.7806
vn -0.0083 0.5821 -0.8130
vn -0.0073 0.7675 -0.6410
vn -0.0059 0.9262 -0.3770
vn -0.0059 0.9362 -0.3513
vn -0.0071 0.7897 -0.6135
vn -0.0083 0.0214 0.9997
vn -0.0084 -0.2022 0.9793
vn -0.0084 -0.2130 0.9770
vn -0.0084 0.0096 0.9999
vn -0.3186 -0.9436 -0.0899
vn -0.3614 -0.9271 -0.0997
vn -0.4331 -0.8908 -0.1374
vn -0.3774 -0.9057 -0.1930
vn -0.3607 -0.9080 -0.2131
vn -0.4178 -0.8843 -0.2087
vn -0.3828 -0.8923 -0.2391
vn -0.3670 -0.8979 -0.2430
vn -0.3649 -0.9006 -0.2363
vn -0.3121 -0.9424 -0.1199
vn -0.0083 -0.6144 0.7889
vn -0.0066 -0.8402 0.5423
vn -0.0055 -0.9348 0.3552
vn -0.0078 -0.6604 0.7509
vn -0.7016 -0.0419 0.7114
vn -0.7002 -0.0115 0.7138
vn -0.5773 -0.8054 -0.1343
vn -0.7117 -0.6974 -0.0844
vn -0.7154 -0.6938 -0.0829
vn -0.9957 0.0253 0.0886
vn -0.9958 0.0249 0.0886
vn -0.9936 0.0683 0.0896
vn -0.9936 0.0689 0.0897
vn -0.6996 -0.2160 0.6811
vn -0.6999 -0.2086 0.6831
vn -0.6138 0.7657 -0.1921
vn -0.6308 0.7400 -0.2336
vn -0.0076 0.9982 0.0599
vn -0.0077 0.9951 0.0984
vn -0.6461 -0.5871 0.4877
vn -0.6489 -0.5773 0.4956
vn -0.8281 -0.5596 -0.0319
vn -0.8308 -0.5557 -0.0305
vn -0.0076 0.4266 -0.9044
vn -0.0070 0.3423 -0.9396
vn -0.6839 -0.4133 0.6012
vn -0.6848 -0.4059 0.6053
vn -0.6540 0.7415 0.1499
vn -0.6341 0.7705 0.0649
vn -0.0081 0.7043 0.7099
vn -0.0072 0.2734 0.9619
vn -0.0075 0.2708 0.9626
vn -0.0081 0.7062 0.7079
vn -0.6191 -0.7667 -0.1699
vn -0.5865 -0.7795 -0.2200
vn -0.5314 -0.7914 -0.3020
vn -0.5027 -0.7977 -0.3331
vn -0.8628 -0.1273 -0.4892
vn -0.6687 -0.5816 -0.4631
vn -0.7187 -0.5539 -0.4203
vn -0.8935 -0.1934 -0.4053
vn -0.7700 -0.5815 -0.2626
vn -0.9303 -0.2948 -0.2185
vn -0.7991 -0.5757 -0.1733
vn -0.9309 -0.3452 -0.1196
vn -0.6642 -0.6913 0.2846
vn -0.7355 -0.5472 0.3996
vn -0.7850 -0.5258 0.3276
vn -0.7007 -0.6770 0.2253
vn -0.8645 -0.4651 0.1907
vn -0.7676 -0.6313 0.1110
vn -0.8908 -0.4382 0.1200
vn -0.7927 -0.6076 0.0498
vn -0.7811 -0.3746 0.4996
vn -0.8327 -0.3557 0.4244
vn -0.9177 -0.2973 0.2635
vn -0.9487 -0.2645 0.1734
vn -0.9987 0.0492 -0.0099
vn -0.9839 0.1787 0.0061
vn -0.9635 0.2579 -0.0713
vn -0.9899 0.1052 -0.0946
vn -0.8850 0.4094 -0.2220
vn -0.9350 0.2400 -0.2612
vn -0.8351 0.4643 -0.2952
vn -0.8883 0.2974 -0.3499
vn -0.9594 0.1930 0.2055
vn -0.9662 0.1025 0.2365
vn -0.9286 0.1205 0.3508
vn -0.9119 0.2812 0.2989
vn -0.8196 0.1733 0.5461
vn -0.8096 0.4014 0.4282
vn -0.7716 0.1435 0.6197
vn -0.7677 0.4737 0.4316
vn -0.9778 -0.0275 0.2079
vn -0.9708 -0.1339 0.1991
vn -0.9416 -0.1535 0.2997
vn -0.9472 -0.0327 0.3190
vn -0.8562 -0.1841 0.4827
vn -0.8583 -0.0267 0.5125
vn -0.8015 -0.1989 0.5640
vn -0.8039 -0.0492 0.5927
vn -0.9553 0.2928 0.0421
vn -0.9420 0.3184 0.1059
vn -0.8930 0.4382 0.1026
vn -0.9143 0.4044 -0.0225
vn -0.7820 0.6156 0.0978
vn -0.7991 0.5868 -0.1310
vn -0.7466 0.6468 0.1553
vn -0.7398 0.6442 -0.1940
vn -0.6272 -0.7768 -0.0565
vn -0.5953 -0.8035 -0.0002
vn -0.5141 -0.8541 0.0786
vn -0.5141 -0.8464 0.1386
vn -0.9921 -0.1168 -0.0451
vn -0.9901 -0.0557 -0.1291
vn -0.9495 0.0804 -0.3033
vn -0.9075 0.1511 -0.3920
vn -0.9881 0.1157 0.1017
vn -0.3050 -0.9165 -0.2590
vn -0.4220 -0.7569 -0.4990
vn -0.3395 -0.7879 -0.5138
vn -0.2466 -0.9263 -0.2847
vn -0.2152 -0.7533 -0.6215
vn -0.1458 -0.9315 -0.3332
vn -0.1438 -0.8104 -0.5679
vn -0.0986 -0.9361 -0.3376
vn -0.1514 0.3381 -0.9289
vn -0.1567 -0.3790 -0.9120
vn -0.2309 -0.2807 -0.9316
vn -0.2701 0.2894 -0.9183
vn -0.3979 -0.3719 -0.8387
vn -0.4901 0.1794 -0.8530
vn -0.4841 -0.2783 -0.8296
vn -0.5905 0.1075 -0.7999
vn -0.1583 -0.7133 0.6828
vn -0.1556 -0.5933 0.7898
vn -0.2627 -0.6066 0.7503
vn -0.2477 -0.7178 0.6507
vn -0.4527 -0.6125 0.6480
vn -0.4113 -0.7368 0.5366
vn -0.5382 -0.5969 0.5950
vn -0.4968 -0.7131 0.4946
vn -0.1623 -0.4530 0.8766
vn -0.2713 -0.4497 0.8510
vn -0.4720 -0.4439 0.7617
vn -0.5667 -0.4241 0.7064
vn -0.1777 0.7119 0.6795
vn -0.1775 0.9755 0.1297
vn -0.2530 0.9634 0.0890
vn -0.2631 0.6781 0.6863
vn -0.4226 0.9013 0.0947
vn -0.4440 0.6282 0.6389
vn -0.5101 0.8572 0.0707
vn -0.5396 0.5746 0.6154
vn -0.1705 -0.0071 0.9853
vn -0.1514 0.2443 0.9578
vn -0.2478 0.2630 0.9324
vn -0.2769 -0.0008 0.9609
vn -0.4399 0.2442 0.8642
vn -0.4794 -0.0137 0.8775
vn -0.5257 0.2532 0.8121
vn -0.5752 -0.0101 0.8179
vn -0.1683 -0.2252 0.9597
vn -0.2763 -0.2244 0.9345
vn -0.4809 -0.2260 0.8472
vn -0.5774 -0.2181 0.7868
vn -0.0660 -0.9945 -0.0814
vn -0.0994 -0.9331 0.3455
vn -0.1674 -0.9178 0.3599
vn -0.1054 -0.9928 -0.0573
vn -0.2901 -0.9168 0.2744
vn -0.2016 -0.9766 -0.0746
vn -0.3682 -0.8966 0.2461
vn -0.2562 -0.9639 -0.0726
vn -0.1780 0.5639 -0.8064
vn -0.3092 0.5350 -0.7862
vn -0.5559 0.4490 -0.6996
vn -0.6682 0.3849 -0.6367
vn -0.1261 0.9375 -0.3243
vn -0.1493 0.7899 -0.5948
vn -0.2571 0.7760 -0.5759
vn -0.2146 0.9217 -0.3232
vn -0.4706 0.7291 -0.4970
vn -0.3964 0.8764 -0.2736
vn -0.5820 0.6803 -0.4455
vn -0.4952 0.8307 -0.2542
vn -0.1652 0.6262 -0.7619
vn -0.2897 0.6109 -0.7368
vn -0.5314 0.5524 -0.6423
vn -0.6459 0.4996 -0.5773
usemtl _oculus_rifts_controller_rightoculusriftscontright
s 1
f 1/1/1 2/2/2 3/3/3 4/4/4
f 5/5/5 6/6/6 7/7/7 8/8/8
f 9/9/9 10/10/10 11/11/11 12/12/12
f 13/13/13 1/1/1 4/4/4 14/14/14
f 15/15/15 16/16/16 17/17/17 18/18/18
f 19/19/19 11/11/11 10/10/10 20/20/20
f 21/21/21 17/17/17 16/16/16 22/22/22
f 23/23/23 24/24/24 25/25/25 26/26/26
f 27/27/27 28/28/28 29/29/29 30/30/30
f 31/31/31 32/32/32 33/33/33 34/34/34
f 35/35/35 36/36/36 6/6/6 5/5/5
f 2/2/2 37/37/37 38/38/38 3/3/3
f 39/39/39 40/40/40 41/41/41 42/42/42
f 43/43/43 44/44/44 45/45/45 46/46/46
f 47/47/47 48/48/48 49/49/49 50/50/50
f 51/51/51 52/52/52 53/53/53 54/54/54 55/55/55 56/56/56 57/57/57 58/58/58 59/59/59 60/60/60
f 61/61/61 62/62/62 63/63/63 64/64/64
f 65/65/65 23/23/23 26/26/26 66/66/66
f 40/40/40 43/43/43 46/46/46 41/41/41
f 55/55/67 54/54/67 67/67/68 68/68/69
f 60/60/60 33/33/33 32/32/32 51/51/51
f 69/69/70 70/70/71 71/71/72 72/72/73
f 73/73/74 65/65/65 66/66/66 74/74/75
f 62/62/62 13/13/13 14/14/14 63/63/63
f 75/75/76 21/21/21 22/22/22 76/76/77
f 44/44/44 77/77/78 78/78/79 45/45/45
f 34/34/34 79/79/80 80/80/81 31/31/31
f 18/18/18 9/9/9 12/12/12 15/15/15
f 81/81/82 82/82/83 36/36/36 35/35/35
f 68/68/69 67/67/68 82/82/83 81/81/82
f 48/48/48 27/27/27 30/30/30 49/49/49
f 83/83/84 39/39/39 42/42/42 84/84/85
f 79/79/80 85/85/86 86/86/87 80/80/81
f 87/87/88 88/88/89 25/25/25 24/24/24
f 89/89/90 90/90/91 91/91/92 92/92/93
f 8/8/8 7/7/7 70/70/71 69/69/70
f 87/87/88 75/75/76 76/76/77 88/88/89
f 90/90/91 47/47/47 50/50/50 91/91/92
f 28/28/28 61/61/61 64/64/64 29/29/29
f 37/37/37 83/83/84 84/84/85 38/38/38
f 85/85/86 73/73/74 74/74/75 86/86/87
f 20/20/20 59/59/59 58/58/58 19/19/19
f 55/55/55 68/68/94 93/93/95 56/56/56
f 56/56/56 93/93/95 94/94/96 57/57/57
f 57/57/57 94/94/96 19/19/97 58/58/58
f 12/12/98 11/11/99 95/95/100 96/96/101
f 96/96/101 95/95/100 97/97/102 98/98/103
f 98/98/103 97/97/102 81/81/104 35/35/105
f 31/31/106 80/80/107 99/99/108 100/100/109
f 100/100/109 99/99/108 101/101/110 102/102/111
f 102/102/111 101/101/110 36/36/112 82/82/113
f 80/80/107 86/86/114 103/103/115 99/99/108
f 99/99/108 103/103/115 104/104/116 101/101/110
f 101/101/110 104/104/116 6/6/117 36/36/112
f 8/8/118 69/69/119 105/105/120 106/106/121
f 106/106/121 105/105/120 107/107/122 108/108/123
f 108/108/123 107/107/122 22/22/124 16/16/125
f 109/109/126 71/71/127 110/110/128 111/111/129
f 111/111/129 110/110/128 112/112/130 113/113/131
f 113/113/131 112/112/130 26/26/132 25/25/133
f 70/70/134 7/7/135 114/114/136 115/115/137
f 115/115/137 114/114/136 116/116/138 117/117/139
f 117/117/139 116/116/138 74/74/140 66/66/141
f 72/72/142 118/118/143 119/119/144 120/120/145
f 120/120/145 119/119/144 121/121/146 122/122/147
f 122/122/147 121/121/146 88/88/148 76/76/149
f 69/69/119 72/72/142 120/120/145 105/105/120
f 105/105/120 120/120/145 122/122/147 107/107/122
f 107/107/122 122/122/147 76/76/149 22/22/124
f 82/82/113 67/67/150 123/123/151 102/102/111
f 102/102/111 123/123/151 124/124/152 100/100/109
f 100/100/109 124/124/152 32/32/153 31/31/106
f 35/35/105 5/5/154 125/125/155 98/98/103
f 98/98/103 125/125/155 126/126/156 96/96/101
f 96/96/101 126/126/156 15/15/157 12/12/98
f 67/67/150 54/54/54 53/53/53 123/123/151
f 123/123/151 53/53/53 52/52/52 124/124/152
f 124/124/152 52/52/52 51/51/51 32/32/153
f 68/68/94 81/81/104 97/97/102 93/93/95
f 93/93/95 97/97/102 95/95/100 94/94/96
f 94/94/96 95/95/100 11/11/99 19/19/97
f 7/7/135 6/6/117 104/104/116 114/114/136
f 114/114/136 104/104/116 103/103/115 116/116/138
f 116/116/138 103/103/115 86/86/114 74/74/140
f 71/71/127 70/70/134 115/115/137 110/110/128
f 110/110/128 115/115/137 117/117/139 112/112/130
f 112/112/130 117/117/139 66/66/141 26/26/132
f 118/118/143 109/109/126 111/111/129 119/119/144
f 119/119/144 111/111/129 113/113/131 121/121/146
f 121/121/146 113/113/131 25/25/133 88/88/148
f 5/5/154 8/8/118 106/106/121 125/125/155
f 125/125/155 106/106/121 108/108/123 126/126/156
f 126/126/156 108/108/123 16/16/125 15/15/157
f 72/72/73 71/71/72 109/109/158 118/118/158
f 59/59/159 20/20/160 127/127/161 128/128/162
f 128/128/162 127/127/161 129/129/163 130/130/164
f 130/130/164 129/129/163 2/2/165 1/1/166
f 83/83/167 37/37/168 131/131/169 132/132/170
f 132/132/170 131/131/169 133/133/171 134/134/172
f 134/134/172 133/133/171 10/10/173 9/9/174
f 61/61/175 28/28/176 135/135/177 136/136/178
f 136/136/178 135/135/177 137/137/179 138/138/180
f 138/138/180 137/137/179 79/79/181 34/34/182
f 28/28/176 27/27/183 139/139/184 135/135/177
f 135/135/177 139/139/184 140/140/185 137/137/179
f 137/137/179 140/140/185 85/85/186 79/79/181
f 89/89/187 77/77/188 141/141/189 142/142/190
f 142/142/190 141/141/189 143/143/191 144/144/192
f 144/144/192 143/143/191 87/87/193 24/24/194
f 47/47/195 90/90/196 145/145/197 146/146/198
f 146/146/198 145/145/197 147/147/199 148/148/200
f 148/148/200 147/147/199 23/23/201 65/65/202
f 27/27/183 48/48/203 149/149/204 139/139/184
f 139/139/184 149/149/204 150/150/205 140/140/185
f 140/140/185 150/150/205 73/73/206 85/85/186
f 37/37/168 2/2/165 129/129/163 131/131/169
f 131/131/169 129/129/163 127/127/161 133/133/171
f 133/133/171 127/127/161 20/20/160 10/10/173
f 13/13/207 62/62/208 151/151/209 152/152/210
f 152/152/210 151/151/209 153/153/211 154/154/212
f 154/154/212 153/153/211 33/33/213 60/60/214
f 1/1/166 13/13/207 152/152/210 130/130/164
f 130/130/164 152/152/210 154/154/212 128/128/162
f 128/128/162 154/154/212 60/60/214 59/59/159
f 39/39/215 83/83/167 132/132/170 155/155/216
f 155/155/216 132/132/170 134/134/172 156/156/217
f 156/156/217 134/134/172 9/9/174 18/18/218
f 62/62/208 61/61/175 136/136/178 151/151/209
f 151/151/209 136/136/178 138/138/180 153/153/211
f 153/153/211 138/138/180 34/34/182 33/33/213
f 44/44/219 43/43/220 157/157/221 158/158/222
f 158/158/222 157/157/221 159/159/223 160/160/224
f 160/160/224 159/159/223 21/21/225 75/75/226
f 77/77/188 44/44/219 158/158/222 141/141/189
f 141/141/189 158/158/222 160/160/224 143/143/191
f 143/143/191 160/160/224 75/75/226 87/87/193
f 48/48/203 47/47/195 146/146/198 149/149/204
f 149/149/204 146/146/198 148/148/200 150/150/205
f 150/150/205 148/148/200 65/65/202 73/73/206
f 90/90/196 89/89/187 142/142/190 145/145/197
f 145/145/197 142/142/190 144/144/192 147/147/199
f 147/147/199 144/144/192 24/24/194 23/23/201
f 43/43/220 40/40/227 161/161/228 157/157/221
f 157/157/221 161/161/228 162/162/229 159/159/223
f 159/159/223 162/162/229 17/17/230 21/21/225
f 18/18/218 17/17/230 162/162/229 156/156/217
f 156/156/217 162/162/229 161/161/228 155/155/216
f 155/155/216 161/161/228 40/40/227 39/39/215
f 77/77/78 89/89/90 92/92/93 78/78/79
